<svg version="1.0" xmlns="http://www.w3.org/2000/svg"
    width="512" height="512" viewBox="0 0 512 512"
    preserveAspectRatio="xMidYMid meet">

    <g transform="translate(0, 512) scale(0.1,-0.1)"
        fill="#000000" stroke="none">
        <path d="M2340 5110 c-303 -37 -439 -67 -660 -147 -230 -83 -496 -228 -680
            -372 -529 -414 -872 -995 -972 -1647 -32 -213 -32 -554 0 -769 30 -200 89
            -412 170 -610 9 -22 47 -101 85 -175 374 -732 1092 -1245 1906 -1362 211 -31
            528 -31 741 0 432 61 841 235 1200 511 129 99 374 349 472 481 99 134 140 198
            199 307 23 43 46 85 50 93 38 68 110 248 154 388 l33 102 -183 0 -182 0 -18
            -57 c-24 -77 -98 -248 -142 -331 -189 -352 -451 -628 -816 -860 -168 -106
            -468 -224 -681 -266 -206 -41 -301 -49 -519 -43 -241 6 -406 33 -617 102 -275
            89 -449 183 -711 381 -70 53 -280 263 -333 333 -156 206 -227 324 -310 516
            -45 105 -111 293 -104 300 2 2 19 -24 38 -58 209 -384 579 -618 1007 -634 154
            -6 252 6 396 49 229 68 418 193 572 378 157 189 251 414 273 660 l7 75 1204 3
            1204 2 -7 158 c-16 377 -85 682 -225 998 -17 38 -35 76 -40 84 -4 8 -27 51
            -51 95 -23 44 -48 87 -54 95 -7 8 -23 33 -35 54 -102 180 -406 507 -611 658
            -113 84 -242 167 -310 202 -162 82 -231 116 -270 129 -25 9 -74 27 -110 40
            -114 43 -334 97 -482 118 -163 22 -474 32 -588 19z m635 -378 c399 -78 755
            -253 1050 -519 311 -279 518 -599 646 -1000 37 -114 92 -388 82 -405 -2 -5
            -992 -8 -2200 -8 l-2195 0 6 48 c19 128 51 278 83 377 96 302 253 576 458 804
            85 93 134 140 294 277 20 17 88 65 151 106 252 165 519 271 813 322 198 35
            188 34 432 31 198 -2 236 -6 380 -33z"/>
    </g>
</svg>