<svg xmlns="http://www.w3.org/2000/svg" width="582" height="582" viewBox="0 0 582 582" version="1.1">
	<path d="M 271 0.650 C 236.427 3.913, 217.931 7.890, 189 18.280 C 164.325 27.142, 131.426 45.768, 109 63.571 C 104.325 67.283, 93.280 77.560, 84.454 86.410 C 39.680 131.309, 12.520 185.188, 2.889 248.211 C 0.248 265.489, -0.714 299.078, 0.928 316.634 C 7.643 388.414, 37.095 449.982, 88.679 500.070 C 141.343 551.209, 207.892 579.374, 281.500 581.679 C 389.013 585.045, 486.459 531.297, 542.110 437.937 C 552.859 419.904, 561.656 399.917, 569.042 376.750 L 572.787 365 551.975 365 L 531.163 365 528.927 371.750 C 517.224 407.079, 496.095 440.912, 468.503 468.503 C 430.086 506.921, 384.346 530.226, 329 539.584 C 314.200 542.086, 277.700 542.624, 261 540.585 C 164.900 528.855, 84.352 463.798, 53.133 372.696 C 47.632 356.643, 47.317 354.304, 51.759 362.500 C 69.040 394.387, 96.063 417.381, 129.340 428.515 C 143.891 433.384, 156.013 435.285, 172.500 435.285 C 209.724 435.285, 242.298 421.812, 268.555 395.555 C 291.497 372.613, 305.495 342.960, 307.825 312.364 L 308.500 303.500 445.192 303.246 L 581.885 302.993 582.268 307.246 C 582.478 309.586, 582.659 301.825, 582.668 290 C 582.678 278.175, 582.415 270.750, 582.084 273.500 C 581.569 277.781, 581.378 276.917, 580.760 267.500 C 578.302 230.064, 566.158 188.406, 547.675 154.008 C 496.336 58.463, 396.360 -0.996, 289 0.163 C 281.025 0.250, 272.925 0.469, 271 0.650 M 263 41.115 C 208.463 47.340, 157.117 71.362, 117.500 109.186 C 76.020 148.790, 48.844 201.914, 41.503 257.750 L 40.812 263 290.741 263 L 540.669 263 539.843 256.750 C 538.214 244.434, 533.763 225.290, 529.555 212.507 C 499.076 119.904, 417.025 52.810, 320.441 41.512 C 306.510 39.883, 275.668 39.670, 263 41.115 M 0.425 291 C 0.425 302.825, 0.569 307.663, 0.746 301.750 C 0.923 295.837, 0.923 286.163, 0.746 280.250 C 0.569 274.337, 0.425 279.175, 0.425 291" stroke="none" fill="black" fill-rule="evenodd"/>
</svg>