<svg width="45" height="64" viewBox="0 0 45 64" fill="none" xmlns="http://www.w3.org/2000/svg">
<g clip-path="url(#clip0_828_80)">
<path d="M41.6926 33.6498H41.6915C43.697 30.3295 44.8507 26.4453 44.8507 22.2944C44.8513 10.063 34.8438 0.147461 22.4998 0.147461C10.1558 0.147461 0.148926 10.063 0.148926 22.2944C0.148926 26.4459 1.3026 30.3295 3.30815 33.6498H3.30696L3.33017 33.6864C3.48495 33.9418 3.64568 34.1937 3.81057 34.4426L22.5004 63.8525L41.1825 34.4544C41.3521 34.199 41.517 33.9401 41.676 33.6776L41.6932 33.6504L41.6926 33.6498Z" fill="black" stroke="white" stroke-linecap="round" stroke-linejoin="round"/>
<path d="M35.5126 18.4029C35.4108 18.4106 35.3096 18.4253 35.2078 18.4253C33.7791 18.4271 32.3498 18.4265 30.9211 18.4265C30.8289 18.4265 30.7366 18.4265 30.6199 18.4265C30.8848 19.3921 30.8027 20.2863 30.3062 21.1251C29.9228 21.7734 29.3752 22.2435 28.6703 22.5213C27.8435 22.8475 27.0083 22.8522 26.1778 22.5319C25.3587 22.2152 24.7652 21.6477 24.3681 20.8691L24.3021 20.8969C24.3753 21.2667 24.4271 21.6424 24.5259 22.0052C24.9801 23.6674 25.8957 24.9976 27.5655 25.6216C29.4627 26.3313 31.2884 26.1484 32.9052 24.8377C33.4696 24.38 33.8583 23.7795 34.1423 23.1171C34.2006 22.9808 34.275 22.9301 34.4238 22.9372C34.6905 22.949 34.9584 22.9407 35.3055 22.9407C35.1037 23.3755 34.9531 23.7842 34.7352 24.1541C33.8065 25.7284 32.3909 26.6191 30.589 26.8733C29.2317 27.065 27.8965 26.9524 26.6553 26.2917C25.2057 25.5202 24.2533 24.3328 23.7538 22.8021C23.0668 20.6945 23.1145 18.5934 24.0556 16.5702C24.9676 14.6095 26.5559 13.5094 28.7263 13.2434C28.7787 13.2369 28.8299 13.2157 28.8811 13.2009C29.3073 13.2009 29.7335 13.2009 30.1598 13.2009C30.2026 13.2151 30.2449 13.2375 30.2895 13.2428C32.785 13.5283 34.6489 15.1026 35.3317 17.5028C35.3906 17.7092 35.4519 17.9157 35.5126 18.1216V18.4029ZM24.7408 17.4609H34.275C34.0387 16.1756 32.4034 14.2922 29.7681 14.1665C27.0851 14.0385 25.3355 15.6217 24.7408 17.4609Z" fill="#CCFF00"/>
<path d="M16.376 13.201C16.773 13.2848 17.1796 13.3391 17.5665 13.457C19.7132 14.1106 20.9984 15.5752 21.5806 17.6863C21.6264 17.8515 21.6491 18.0226 21.6901 18.1889C21.7372 18.3788 21.6663 18.4313 21.4735 18.4302C20.2817 18.4225 19.0899 18.4266 17.8981 18.4266C17.5523 18.4266 17.2058 18.4266 16.8516 18.4266C17.2123 20.3885 16.6123 21.9109 14.6591 22.5704C12.8542 23.1803 11.4702 22.4341 10.4933 20.7896C10.7737 22.9396 11.6089 24.6656 13.6567 25.5911C15.289 26.3284 17.8082 26.1337 19.2506 24.7098C19.7203 24.2462 20.084 23.7124 20.343 23.1107C20.3972 22.9845 20.4603 22.932 20.6019 22.9373C20.877 22.9479 21.152 22.9402 21.4556 22.9402C21.2752 23.5708 20.999 24.1259 20.6246 24.6308C19.7608 25.7969 18.6018 26.5278 17.1754 26.8021C15.5914 27.1064 14.0466 26.9991 12.6209 26.1632C11.16 25.3068 10.2611 24.0197 9.82833 22.42C9.27352 20.369 9.36341 18.344 10.3218 16.4217C11.257 14.5459 12.8191 13.4977 14.9205 13.2423C14.9645 13.237 15.0062 13.2146 15.0485 13.2004H16.3748L16.376 13.201ZM10.9374 17.4557H20.4847C20.0793 15.6377 17.9338 14.1725 15.717 14.1596C13.1084 14.1436 11.4803 15.7669 10.9374 17.4557Z" fill="#CCFF00"/>
</g>
<defs>
<clipPath id="clip0_828_80">
<rect width="45" height="64" fill="white"/>
</clipPath>
</defs>
</svg>
