<svg width="36" height="51" viewBox="0 0 36 51" fill="none" xmlns="http://www.w3.org/2000/svg">
<g clip-path="url(#clip0_828_69)">
<path d="M33.3541 26.8146H33.3532C34.9576 24.1687 35.8805 21.0735 35.8805 17.7658C35.881 8.01891 27.875 0.117432 17.9998 0.117432C8.12464 0.117432 0.119141 8.01891 0.119141 17.7658C0.119141 21.074 1.04208 24.1687 2.64652 26.8146H2.64556L2.66414 26.8438C2.78796 27.0473 2.91654 27.248 3.04846 27.4464L18.0003 50.8824L32.946 27.4558C33.0817 27.2523 33.2136 27.0459 33.3408 26.8367L33.3546 26.8151L33.3541 26.8146Z" fill="#CCFF00" stroke="white" stroke-linecap="round" stroke-linejoin="round"/>
<path d="M28.4103 14.6649C28.3289 14.671 28.2479 14.6827 28.1665 14.6827C27.0235 14.6841 25.8801 14.6837 24.7371 14.6837C24.6633 14.6837 24.5895 14.6837 24.4961 14.6837C24.7081 15.4531 24.6423 16.1657 24.2452 16.8341C23.9385 17.3507 23.5003 17.7253 22.9365 17.9467C22.275 18.2067 21.6068 18.2104 20.9425 17.9552C20.2872 17.7028 19.8124 17.2506 19.4947 16.6301L19.4419 16.6522C19.5004 16.9469 19.5419 17.2464 19.6209 17.5354C19.9843 18.86 20.7167 19.92 22.0526 20.4173C23.5703 20.9828 25.0309 20.837 26.3244 19.7926C26.7759 19.4278 27.0868 18.9493 27.314 18.4215C27.3607 18.3129 27.4202 18.2725 27.5393 18.2781C27.7526 18.2875 27.9669 18.2809 28.2446 18.2809C28.0831 18.6274 27.9626 18.9531 27.7883 19.2478C27.0454 20.5024 25.9129 21.2121 24.4714 21.4147C23.3856 21.5675 22.3174 21.4777 21.3244 20.9513C20.1648 20.3364 19.4028 19.3902 19.0032 18.1705C18.4537 16.491 18.4918 14.8167 19.2447 13.2044C19.9743 11.642 21.2449 10.7654 22.9812 10.5534C23.0231 10.5482 23.0641 10.5313 23.105 10.5195C23.446 10.5195 23.787 10.5195 24.128 10.5195C24.1623 10.5308 24.1961 10.5487 24.2318 10.5529C26.2282 10.7804 27.7193 12.035 28.2655 13.9476C28.3127 14.1121 28.3617 14.2766 28.4103 14.4407V14.6649ZM19.7928 13.9142H27.4202C27.2311 12.89 25.9229 11.3891 23.8146 11.289C21.6682 11.187 20.2686 12.4486 19.7928 13.9142Z" fill="black"/>
<path d="M13.1006 10.5195C13.4182 10.5863 13.7435 10.6295 14.053 10.7235C15.7703 11.2443 16.7985 12.4114 17.2643 14.0937C17.301 14.2254 17.3191 14.3617 17.3519 14.4942C17.3895 14.6456 17.3329 14.6874 17.1786 14.6865C16.2251 14.6804 15.2717 14.6837 14.3183 14.6837C14.0416 14.6837 13.7644 14.6837 13.4811 14.6837C13.7697 16.247 13.2896 17.4602 11.7271 17.9857C10.2832 18.4718 9.17593 17.8771 8.39442 16.5667C8.61873 18.28 9.28689 19.6553 10.9251 20.3928C12.231 20.9804 14.2464 20.8253 15.4003 19.6906C15.7761 19.3211 16.067 18.8957 16.2742 18.4163C16.3175 18.3157 16.368 18.2739 16.4814 18.2781C16.7014 18.2866 16.9214 18.2804 17.1643 18.2804C17.02 18.7829 16.799 19.2252 16.4995 19.6276C15.8084 20.5569 14.8812 21.1393 13.7402 21.3578C12.4729 21.6004 11.2371 21.5148 10.0965 20.8488C8.92781 20.1663 8.20869 19.1406 7.86247 17.8659C7.41862 16.2315 7.49053 14.6178 8.25727 13.086C9.00543 11.5912 10.2551 10.7559 11.9362 10.5524C11.9714 10.5482 12.0048 10.5303 12.0386 10.519H13.0996L13.1006 10.5195ZM8.7497 13.91H16.3875C16.0632 12.4613 14.3469 11.2937 12.5734 11.2833C10.4865 11.2706 9.18402 12.5642 8.7497 13.91Z" fill="black"/>
</g>
<defs>
<clipPath id="clip0_828_69">
<rect width="36" height="51" fill="white"/>
</clipPath>
</defs>
</svg>
